<?xml version="1.0" encoding="UTF-8" standalone="no"?>
<!-- Generator: Adobe Illustrator 14.0.0, SVG Export Plug-In . SVG Version: 6.00 Build 43363)  -->

<svg
   xmlns:dc="http://purl.org/dc/elements/1.1/"
   xmlns:cc="http://creativecommons.org/ns#"
   xmlns:rdf="http://www.w3.org/1999/02/22-rdf-syntax-ns#"
   xmlns:svg="http://www.w3.org/2000/svg"
   xmlns="http://www.w3.org/2000/svg"
   xmlns:sodipodi="http://sodipodi.sourceforge.net/DTD/sodipodi-0.dtd"
   xmlns:inkscape="http://www.inkscape.org/namespaces/inkscape"
   version="1.1"
   id="svg1901"
   inkscape:version="0.92.2 2405546, 2018-03-11"
   sodipodi:docname="pyodine_logo.svg"
   x="0px"
   y="0px"
   width="56.529068"
   height="57.11467"
   viewBox="346.5 473.844 52.996 53.545"
   enable-background="new 346.5 473.844 53.417 53.99"
   xml:space="preserve"
   inkscape:export-filename="/home/franz/Downloads/pyodine_logo.png"
   inkscape:export-xdpi="215.67665"
   inkscape:export-ydpi="215.67665"><metadata
     id="metadata40"><rdf:RDF><cc:Work
         rdf:about=""><dc:format>image/svg+xml</dc:format><dc:type
           rdf:resource="http://purl.org/dc/dcmitype/StillImage" /><dc:title /></cc:Work></rdf:RDF></metadata><sodipodi:namedview
     id="namedview1769"
     showgrid="false"
     pagecolor="#ffffff"
     bordercolor="#666666"
     inkscape:cy="47.924638"
     guidetolerance="10"
     inkscape:cx="49.027395"
     gridtolerance="10"
     inkscape:zoom="5.12"
     objecttolerance="10"
     borderopacity="1"
     inkscape:current-layer="layer2"
     inkscape:window-y="0"
     inkscape:window-x="0"
     inkscape:snap-grids="true"
     inkscape:window-height="871"
     inkscape:window-width="1600"
     inkscape:pageshadow="2"
     inkscape:pageopacity="0"
     inkscape:window-maximized="1"><inkscape:grid
       type="xygrid"
       id="grid4583"
       originx="-0.25717"
       originy="-0.20318604"
       spacingx="1"
       spacingy="1" /></sodipodi:namedview><defs
     id="defs5"><inkscape:perspective
       id="perspective1773"
       inkscape:persp3d-origin="749.99998 : 249.99999 : 1"
       inkscape:vp_z="1500 : 374.99999 : 1"
       inkscape:vp_y="0 : 999.99998 : 0"
       inkscape:vp_x="0 : 374.99999 : 1"
       sodipodi:type="inkscape:persp3d" /></defs><g
     id="layer2"
     transform="translate(115.367,74.007)"><path
   id="rect4895"
   d="m 236.654,400.587 h 41.954 c 2.634,0 4.771,1.797 4.771,4.012 v 44.021 c 0,2.216 -2.136,4.012 -4.771,4.012 h -41.954 c -2.634,0 -4.771,-1.796 -4.771,-4.012 v -44.021 c 0,-2.215 2.136,-4.012 4.771,-4.012 z"
   inkscape:connector-curvature="0"
   style="fill:#656565" /><rect
   id="rect4897"
   x="272.07401"
   y="404.453"
   width="11.279"
   height="34.563"
   style="fill:#d6d6d6" /><linearGradient
   id="path4899_1_"
   gradientUnits="userSpaceOnUse"
   x1="-885.3761"
   y1="640.05511"
   x2="-888.40662"
   y2="652.68213"
   gradientTransform="matrix(0.2087,0,0,-0.208,461.3392,537.5479)"><stop
     offset="0"
     style="stop-color:#D6D6D6"
     id="stop9" /><stop
     offset="1"
     style="stop-color:#656565"
     id="stop11" /></linearGradient><path
   id="path4899"
   d="m 274.235,407.467 9.094,-2.972 c -0.361,-2.856 -2.329,-3.846 -5.069,-3.937 -3.646,0.105 -7.203,0.26 -9.094,1.337 z"
   inkscape:connector-curvature="0"
   style="fill:url(#path4899_1_)" /><rect
   id="rect4901"
   x="240.976"
   y="439.646"
   width="33.469002"
   height="12.975"
   style="fill:#929292" /><linearGradient
   id="path4903_1_"
   gradientUnits="userSpaceOnUse"
   x1="2230.7595"
   y1="454.89789"
   x2="2250.8057"
   y2="439.24011"
   gradientTransform="matrix(-0.2087,0,0,-0.208,744.2323,537.5479)"><stop
     offset="0"
     style="stop-color:#D6D6D6"
     id="stop16" /><stop
     offset="1"
     style="stop-color:#939393"
     id="stop18" /></linearGradient><path
   id="path4903"
   d="m 272.535,436.6 10.805,1.155 0.04,10.506 c -0.005,2.709 -2.167,4.266 -4.401,4.359 l -4.81,-0.052 -5.324,-12.345 z"
   inkscape:connector-curvature="0"
   style="fill:url(#path4903_1_)" /><linearGradient
   id="path4905_1_"
   gradientUnits="userSpaceOnUse"
   x1="-1084.8995"
   y1="454.4057"
   x2="-1061.9962"
   y2="438.74789"
   gradientTransform="matrix(0.2087,0,0,-0.208,461.3392,537.5479)"><stop
     offset="0"
     style="stop-color:#656565"
     id="stop22" /><stop
     offset="1"
     style="stop-color:#939393"
     id="stop24" /></linearGradient><path
   id="path4905"
   d="m 239.395,436.495 -7.484,1.261 -0.04,10.506 c 0.005,2.709 2.167,4.266 4.401,4.359 l 4.81,-0.052 1.687,-12.292 z"
   inkscape:connector-curvature="0"
   style="fill:url(#path4905_1_)" /><path
   id="rect4907"
   d="m 243.424,401.246 h 26.994 c 2.635,0 4.771,2.128 4.771,4.754 v 30.736 c 0,2.626 -2.136,4.755 -4.771,4.755 h -26.994 c -2.635,0 -4.771,-2.129 -4.771,-4.755 V 406 c 0.001,-2.627 2.136,-4.754 4.771,-4.754 z"
   inkscape:connector-curvature="0"
   style="fill:#f1f1f1" /><linearGradient
   id="rect4909_1_"
   gradientUnits="userSpaceOnUse"
   x1="-1143.3112"
   y1="401.05219"
   x2="-1066.7612"
   y2="401.05219"
   gradientTransform="matrix(0.2087,0,0,-0.208,488.0692,504.7872)"><stop
     offset="0"
     style="stop-color:#D8D8D8"
     id="stop29" /><stop
     offset="1"
     style="stop-color:#B1B1B1"
     id="stop31" /></linearGradient><path
   id="rect4909"
   d="m 243.424,401.246 h 25.94 c 2.635,0 4.771,2.128 4.771,4.754 v 30.736 c 0,2.626 -2.136,4.755 -4.771,4.755 h -25.94 c -2.635,0 -4.771,-2.129 -4.771,-4.755 V 406 c 0.001,-2.627 2.136,-4.754 4.771,-4.754 z"
   inkscape:connector-curvature="0"
   style="fill:url(#rect4909_1_)" />
<path
   id="rect4915"
   d="m 236.654,400.587 h 41.954 c 2.634,0 4.771,1.797 4.771,4.012 v 44.021 c 0,2.216 -2.136,4.012 -4.771,4.012 h -41.954 c -2.634,0 -4.771,-1.796 -4.771,-4.012 v -44.021 c 0,-2.215 2.136,-4.012 4.771,-4.012 z"
   inkscape:connector-curvature="0"
   style="fill:none;stroke:#000000;stroke-width:1.5" /><text
   xml:space="preserve"
   style="font-style:normal;font-variant:normal;font-weight:normal;font-stretch:normal;font-size:17.49999809px;line-height:23.43749809px;font-family:'noto sans';-inkscape-font-specification:'noto sans';font-variant-ligatures:normal;font-variant-caps:normal;font-variant-numeric:normal;font-feature-settings:normal;text-align:center;letter-spacing:0px;word-spacing:0px;writing-mode:lr-tb;text-anchor:middle;fill:#000000;fill-opacity:1;stroke:none;stroke-width:0.93749994px;stroke-linecap:butt;stroke-linejoin:miter;stroke-opacity:1"
   x="250.52455"
   y="420.18243"
   id="text4541"><tspan
     sodipodi:role="line"
     id="tspan4539"
     x="250.52455"
     y="420.18243"
     style="stroke-width:0.93749994px;-inkscape-font-specification:'Noto Sans';font-family:'Noto Sans';font-weight:normal;font-style:normal;font-stretch:normal;font-variant:normal">I₂</tspan></text>
</g></svg>