<?xml version="1.0" encoding="UTF-8" standalone="no"?>
<svg
   xmlns:dc="http://purl.org/dc/elements/1.1/"
   xmlns:cc="http://creativecommons.org/ns#"
   xmlns:rdf="http://www.w3.org/1999/02/22-rdf-syntax-ns#"
   xmlns:svg="http://www.w3.org/2000/svg"
   xmlns="http://www.w3.org/2000/svg"
   xml:space="preserve"
   enable-background="new 346.5 473.844 53.417 53.99"
   viewBox="346.5 473.844 52.996 53.545"
   height="57.11467"
   width="56.529068"
   y="0px"
   x="0px"
   id="svg1901"
   version="1.1"><metadata
     id="metadata40"><rdf:RDF><cc:Work
         rdf:about=""><dc:format>image/svg+xml</dc:format><dc:type
           rdf:resource="http://purl.org/dc/dcmitype/StillImage" /><dc:title></dc:title></cc:Work></rdf:RDF></metadata><defs
     id="defs5" /><g
     transform="translate(115.367,74.007)"
     id="layer2"><path
   style="fill:#656565"
   d="m 236.654,400.587 h 41.954 c 2.634,0 4.771,1.797 4.771,4.012 v 44.021 c 0,2.216 -2.136,4.012 -4.771,4.012 h -41.954 c -2.634,0 -4.771,-1.796 -4.771,-4.012 v -44.021 c 0,-2.215 2.136,-4.012 4.771,-4.012 z"
   id="rect4895" /><rect
   style="fill:#d6d6d6"
   height="34.563"
   width="11.279"
   y="404.453"
   x="272.07401"
   id="rect4897" /><linearGradient
   gradientTransform="matrix(0.2087,0,0,-0.208,461.3392,537.5479)"
   y2="652.68213"
   x2="-888.40662"
   y1="640.05511"
   x1="-885.3761"
   gradientUnits="userSpaceOnUse"
   id="path4899_1_"><stop
     id="stop9"
     style="stop-color:#D6D6D6"
     offset="0" /><stop
     id="stop11"
     style="stop-color:#656565"
     offset="1" /></linearGradient><path
   style="fill:url(#path4899_1_)"
   d="m 274.235,407.467 9.094,-2.972 c -0.361,-2.856 -2.329,-3.846 -5.069,-3.937 -3.646,0.105 -7.203,0.26 -9.094,1.337 z"
   id="path4899" /><rect
   style="fill:#929292"
   height="12.975"
   width="33.469002"
   y="439.646"
   x="240.976"
   id="rect4901" /><linearGradient
   gradientTransform="matrix(-0.2087,0,0,-0.208,744.2323,537.5479)"
   y2="439.24011"
   x2="2250.8057"
   y1="454.89789"
   x1="2230.7595"
   gradientUnits="userSpaceOnUse"
   id="path4903_1_"><stop
     id="stop16"
     style="stop-color:#D6D6D6"
     offset="0" /><stop
     id="stop18"
     style="stop-color:#939393"
     offset="1" /></linearGradient><path
   style="fill:url(#path4903_1_)"
   d="m 272.535,436.6 10.805,1.155 0.04,10.506 c -0.005,2.709 -2.167,4.266 -4.401,4.359 l -4.81,-0.052 -5.324,-12.345 z"
   id="path4903" /><linearGradient
   gradientTransform="matrix(0.2087,0,0,-0.208,461.3392,537.5479)"
   y2="438.74789"
   x2="-1061.9962"
   y1="454.4057"
   x1="-1084.8995"
   gradientUnits="userSpaceOnUse"
   id="path4905_1_"><stop
     id="stop22"
     style="stop-color:#656565"
     offset="0" /><stop
     id="stop24"
     style="stop-color:#939393"
     offset="1" /></linearGradient><path
   style="fill:url(#path4905_1_)"
   d="m 239.395,436.495 -7.484,1.261 -0.04,10.506 c 0.005,2.709 2.167,4.266 4.401,4.359 l 4.81,-0.052 1.687,-12.292 z"
   id="path4905" /><path
   style="fill:#f1f1f1"
   d="m 243.424,401.246 h 26.994 c 2.635,0 4.771,2.128 4.771,4.754 v 30.736 c 0,2.626 -2.136,4.755 -4.771,4.755 h -26.994 c -2.635,0 -4.771,-2.129 -4.771,-4.755 V 406 c 0.001,-2.627 2.136,-4.754 4.771,-4.754 z"
   id="rect4907" /><linearGradient
   gradientTransform="matrix(0.2087,0,0,-0.208,488.0692,504.7872)"
   y2="401.05219"
   x2="-1066.7612"
   y1="401.05219"
   x1="-1143.3112"
   gradientUnits="userSpaceOnUse"
   id="rect4909_1_"><stop
     id="stop29"
     style="stop-color:#D8D8D8"
     offset="0" /><stop
     id="stop31"
     style="stop-color:#B1B1B1"
     offset="1" /></linearGradient><path
   style="fill:url(#rect4909_1_)"
   d="m 243.424,401.246 h 25.94 c 2.635,0 4.771,2.128 4.771,4.754 v 30.736 c 0,2.626 -2.136,4.755 -4.771,4.755 h -25.94 c -2.635,0 -4.771,-2.129 -4.771,-4.755 V 406 c 0.001,-2.627 2.136,-4.754 4.771,-4.754 z"
   id="rect4909" />
<path
   style="fill:none;stroke:#000000;stroke-width:1.5"
   d="m 236.654,400.587 h 41.954 c 2.634,0 4.771,1.797 4.771,4.012 v 44.021 c 0,2.216 -2.136,4.012 -4.771,4.012 h -41.954 c -2.634,0 -4.771,-1.796 -4.771,-4.012 v -44.021 c 0,-2.215 2.136,-4.012 4.771,-4.012 z"
   id="rect4915" /><text
   id="text4541"
   y="420.18243"
   x="250.52455"
   style="font-style:normal;font-variant:normal;font-weight:normal;font-stretch:normal;font-size:17.49999809px;line-height:23.43749809px;font-family:'noto sans';-inkscape-font-specification:'noto sans';font-variant-ligatures:normal;font-variant-caps:normal;font-variant-numeric:normal;font-feature-settings:normal;text-align:center;letter-spacing:0px;word-spacing:0px;writing-mode:lr-tb;text-anchor:middle;fill:#000000;fill-opacity:1;stroke:none;stroke-width:0.93749994px;stroke-linecap:butt;stroke-linejoin:miter;stroke-opacity:1"
   xml:space="preserve"><tspan
     style="stroke-width:0.93749994px;-inkscape-font-specification:'Noto Sans';font-family:'Noto Sans', sans-serif;font-weight:normal;font-style:normal;font-stretch:normal;font-variant:normal"
     y="420.18243"
     x="250.52455"
     id="tspan4539">I₂</tspan></text>
</g></svg>
